<svg version="1.1" id="Layer_1" xmlns="http://www.w3.org/2000/svg" xmlns:xlink="http://www.w3.org/1999/xlink" x="0px" y="0px"
    viewBox="0 0 574.995 574.995" style="enable-background:new 0 0 474.995 474.995;" xml:space="preserve">
<g transform="translate(0 -540.36)">
	<g>
		<g>
			<path d="M227.1,749.207H331c4.1,0,7.5-3.3,7.5-7.5v-52.1c0-4.1-3.4-7.5-7.5-7.5c-4.1,0-7.5,3.4-7.5,7.5v44.6h-88.9v-44.6
				c0-4.1-3.4-7.5-7.5-7.5c-4.1,0-7.5,3.4-7.5,7.5v52.1C219.6,745.807,223,749.207,227.1,749.207z"/>
            <path d="M279,686.307c16.5,0,30-13.5,30-30c0-16.8-13.2-30-30-30s-30,13.2-30,30C249,672.807,262.5,686.307,279,686.307z
				 M279,641.307c8.6,0,15,6.4,15,15c0,8.3-6.7,15-15,15s-15-6.7-15-15C264,647.707,270.4,641.307,279,641.307z"/>
            <path d="M278.2,815.907L278.2,815.907c34.9,0,67.5-13.3,92-37.7c24.4-24.2,37.8-56.5,37.8-90.9c0-34.7-13.4-67.3-37.8-91.6
				c-24.4-24.4-57.1-37.8-92-37.8c-70.7,0-128.2,58.1-128.2,129.4C150,758.207,207.5,815.907,278.2,815.907z M278.2,572.907
				c63.3,0,114.8,51.4,114.8,114.4c0,62.6-51.5,113.6-114.8,113.6c-62.4,0-113.2-51-113.2-113.6
				C165,624.207,215.8,572.907,278.2,572.907z"/>
            <path d="M474.6,891.507c-1.4-3.9-5.7-6-9.6-4.6l-269.4,94.8l-81.7-82.5h141.8c4.1,0,7.5-3.4,7.5-7.5s-3.4-7.5-7.5-7.5H7.5
				c-4.1,0-7.5,3.4-7.5,7.5s3.4,7.5,7.5,7.5h85.3l0.1,0.1l95.4,96.3c1.4,1.4,3.4,2.2,5.3,2.2c0.8,0,1.7-0.1,2.5-0.4l273.8-96.3
				C473.9,899.707,475.9,895.407,474.6,891.507z"/>
		</g>
	</g>
</g>
</svg>
